#!OML:ASF F:\VICON\USERDATA\INSTALL\rory3\rory3.ASF
:FULLY-SPECIFIED
:DEGREES
387
root 4.19148 16.5052 -15.7499 25.6896 2.37676 -5.33605
lowerback -17.6255 -1.11694 2.45085
upperback -14.6991 -1.53239 9.2634
thorax -5.9821 -0.458415 8.53979
lowerneck 2.06474 -2.94306 0.0720759
upperneck 15.1537 -3.58896 -3.53336
head 4.57424 -1.93698 -1.32645
rclavicle 4.37326e-015 -3.65764e-014
rhumerus -0.908099 10.8448 -73.259
rradius 135.088
rwrist -91.4696
rhand -7.13208 10.064
rfingers 7.12502
rthumb 18.7438 -19.053
lclavicle 4.37326e-015 -3.65764e-014
lhumerus -65.944 -17.1277 116.265
lradius 33.9608
lwrist 1.8385
lhand 19.4979 13.1134
lfingers 7.12502
lthumb 44.0671 36.9712
rfemur -40.9024 1.79532 37.4528
rtibia 30.0487
rfoot -24.1692 -24.5944
rtoes 19.6411
lfemur -21.3635 22.964 -27.2375
ltibia 43.3608
lfoot 50.0088 16.2764
ltoes -21.6459
388
root 4.18684 16.5084 -15.7527 25.8725 2.54648 -5.23098
lowerback -17.5729 -0.935698 2.38733
upperback -15.1151 -1.23942 9.10187
thorax -6.53497 -0.290534 8.46246
lowerneck 2.41898 -3.13616 0.284205
upperneck 14.1921 -3.85841 -3.66634
head 4.13984 -2.05523 -1.38215
rclavicle 2.74323e-014 -5.40694e-014
rhumerus 0.825726 10.288 -73.4946
rradius 134.594
rwrist -92.2219
rhand -7.73843 10.3962
rfingers 7.12502
rthumb 18.1605 -18.7761
lclavicle 2.74323e-014 -5.40694e-014
lhumerus -66.9773 -17.431 116.827
lradius 34.4453
lwrist 0.972291
lhand 20.8146 13.3613
lfingers 7.12502
lthumb 45.2931 36.7444
rfemur -41.1481 2.14822 37.2187
rtibia 30.0786
rfoot -23.6747 -25.1051
rtoes 18.9178
lfemur -21.5398 22.8763 -27.3238
ltibia 43.2966
lfoot 50.639 15.3189
ltoes -23.4412
389
root 4.18971 16.5134 -15.753 25.9038 2.73185 -5.08982
lowerback -17.4462 -0.831264 2.47981
upperback -15.4011 -1.07471 8.96474
thorax -6.96083 -0.207829 8.29597
lowerneck 2.74136 -3.20144 0.389963
upperneck 13.1442 -3.96454 -3.71348
head 3.69687 -2.09454 -1.38358
rclavicle 2.66371e-014 -1.08139e-013
rhumerus 3.26114 10.0298 -73.9518
rradius 133.898
rwrist -93.0607
rhand -9.18567 9.93618
rfingers 7.12502
rthumb 16.7677 -19.3598
lclavicle 2.66371e-014 -1.08139e-013
lhumerus -67.7232 -17.7671 117.464
lradius 34.8088
lwrist 0.927255
lhand 21.1776 13.7545
lfingers 7.12502
lthumb 45.6305 37.0014
rfemur -41.2434 2.19007 37.0153
rtibia 30.1224
rfoot -24.3547 -25.1609
rtoes 20.2151
lfemur -21.4502 22.8224 -27.3905
ltibia 43.1663
lfoot 48.0316 18.8038
ltoes -18.2359
390
root 4.19308 16.5184 -15.7485 25.8399 2.96227 -4.95205
lowerback -17.282 -0.804073 2.57193
upperback -15.6145 -1.0141 8.92419
thorax -7.30898 -0.176249 8.22229
lowerneck 3.40389 -3.31769 0.282849
upperneck 11.662 -4.1475 -3.80838
head 3.05265 -2.17664 -1.34575
rclavicle -3.97569e-014 1.04958e-013
rhumerus 5.81929 10.0076 -74.2855
rradius 133.015
rwrist -93.8184
rhand -10.3913 9.51736
rfingers 7.12502
rthumb 15.6068 -19.873
lclavicle -3.97569e-014 1.04958e-013
lhumerus -68.2617 -17.902 118.035
lradius 35.0234
lwrist 0.89085
lhand 20.7803 13.5052
lfingers 7.12502
lthumb 45.2613 36.9011
rfemur -41.1567 2.4522 36.6881
rtibia 30.1277
rfoot -25.0178 -25.3656
rtoes 21.6772
lfemur -21.2209 22.795 -27.3687
ltibia 43.0243
lfoot 50.3808 16.2582
ltoes -21.5434
391
root 4.19553 16.522 -15.7497 25.8066 3.18472 -4.71784
lowerback -17.0971 -0.835056 2.50875
upperback -15.743 -1.01854 8.93601
thorax -7.55785 -0.163558 8.28496
lowerneck 3.74251 -3.47734 0.321248
upperneck 10.2136 -4.37055 -4.17915
head 2.48767 -2.27996 -1.43042
rclavicle -7.95139e-016 2.06736e-014
rhumerus 8.42827 10.0197 -74.3607
rradius 132.124
rwrist -95.0872
rhand -10.5694 9.62896
rfingers 7.12502
rthumb 15.4352 -19.7747
lclavicle -7.95139e-016 2.06736e-014
lhumerus -68.4354 -17.7197 118.163
lradius 35.1996
lwrist 0.252145
lhand 20.508 12.8298
lfingers 7.12502
lthumb 45.0081 36.3262
rfemur -41.101 2.67917 36.275
rtibia 30.1005
rfoot -25.7245 -25.4756
rtoes 23.1732
lfemur -21.0702 22.6783 -27.4788
ltibia 42.8898
lfoot 49.4917 18.1913
ltoes -18.0329
